<svg width="154" height="36" viewBox="0 0 154 36" fill="none" xmlns="http://www.w3.org/2000/svg">
<path d="M0.0580899 35.897L7.17554 8.72827L15.4271 7.86099L19.3116 22.4387L19.9717 22.3694L24.0088 6.95902L31.3527 6.18714L24.2353 33.3559L15.9837 34.2232L12.2666 19.1595L11.5653 19.2332L7.40202 35.1251L0.0580899 35.897Z" fill="#300219"/>
<path d="M33.953 32.8028C31.6151 33.0485 30.0087 32.697 29.1338 31.7483C28.2589 30.7995 28.1159 29.2015 28.7046 26.9542C29.1251 25.3489 29.7501 24.0864 30.5795 23.1667C31.4364 22.2441 32.5018 21.5467 33.7756 21.0746C35.0495 20.6025 36.5221 20.2396 38.1934 19.9859L42.4341 19.267L42.6654 18.3841C42.8406 17.7152 42.7432 17.2702 42.3732 17.0489C42.0307 16.8247 41.4744 16.7531 40.7042 16.834C39.8791 16.9208 38.9369 17.0458 37.8777 17.2092C36.8184 17.3725 35.7832 17.5464 34.772 17.7307C33.7608 17.9151 32.8733 18.0864 32.1097 18.2447L33.1544 13.4908C33.9736 13.2226 34.9304 12.9399 36.0247 12.6427C37.1464 12.3427 38.2989 12.0785 39.4822 11.8501C40.6725 11.5949 41.7765 11.4138 42.7941 11.3068C44.637 11.1131 46.166 11.1476 47.3811 11.4101C48.6238 11.6698 49.4592 12.2584 49.8875 13.176C50.3433 14.0908 50.3365 15.4444 49.8669 17.2369L47.6381 25.7447C47.6575 25.9768 47.7837 26.1587 48.0167 26.2903C48.2772 26.419 48.5655 26.4928 48.8815 26.5116L47.5698 31.0594C46.8886 31.2091 46.1732 31.3363 45.4236 31.4411C44.6669 31.5727 44.0893 31.6334 43.6907 31.6232C42.8726 31.6832 42.2235 31.6083 41.7435 31.3986C41.2705 31.1621 40.9452 30.9231 40.7678 30.6816C40.3061 30.9123 39.7 31.1841 38.9492 31.4972C38.2055 31.7835 37.4001 32.0502 36.5329 32.2975C35.6656 32.5448 34.8057 32.7132 33.953 32.8028ZM37.051 27.716C37.4636 27.6727 37.8729 27.5906 38.279 27.4699C38.7196 27.3195 39.1363 27.1586 39.5289 26.9873C39.949 26.813 40.2831 26.6608 40.5312 26.5307L41.3933 23.2399L38.3078 23.8374C37.6337 23.9603 37.086 24.213 36.6648 24.5955C36.2782 24.9483 36.0077 25.4191 35.8535 26.0077C35.6994 26.5962 35.7142 27.05 35.8982 27.3689C36.0891 27.661 36.4734 27.7767 37.051 27.716Z" fill="#300219"/>
<path d="M55.5791 30.0615L61.1511 8.79204L54.3848 9.50321L55.9303 3.60394L76.5593 1.43574L75.0138 7.33501L68.4951 8.02016L62.9231 29.2896L55.5791 30.0615Z" fill="#300219"/>
<path d="M71.731 28.3639L77.0192 8.17795L84.0743 7.43642L83.5066 9.6035C84.0378 9.20944 84.655 8.79334 85.3582 8.35518C86.096 7.88738 86.8472 7.47019 87.612 7.10363C88.3767 6.73706 89.0721 6.48184 89.6983 6.33798L87.9846 12.8793C87.393 12.9936 86.7253 13.1938 85.9816 13.4801C85.2379 13.7664 84.5147 14.0766 83.812 14.4106C83.1368 14.7418 82.5374 15.0389 82.0137 15.3021L78.7861 27.6223L71.731 28.3639Z" fill="#300219"/>
<path d="M92.5362 26.6455C90.1983 26.8912 88.5918 26.5397 87.717 25.5909C86.8421 24.6422 86.699 23.0442 87.2878 20.7968C87.7083 19.1916 88.3333 17.9291 89.1627 17.0094C90.0196 16.0867 91.0849 15.3894 92.3588 14.9173C93.6326 14.4452 95.1052 14.0822 96.7766 13.8285L101.017 13.1096L101.249 12.2267C101.424 11.5579 101.326 11.1128 100.956 10.8915C100.614 10.6674 100.058 10.5958 99.2874 10.6767C98.4622 10.7634 97.52 10.8885 96.4608 11.0518C95.4016 11.2152 94.3664 11.389 93.3552 11.5734C92.3439 11.7577 91.4565 11.929 90.6928 12.0874L91.7376 7.33345C92.5568 7.06522 93.5136 6.78254 94.6078 6.48541C95.7296 6.18538 96.8821 5.92115 98.0654 5.69272C99.2556 5.43753 100.36 5.25645 101.377 5.14949C103.22 4.9558 104.749 4.99022 105.964 5.25277C107.207 5.51243 108.042 6.10107 108.471 7.01869C108.927 7.93343 108.92 9.28706 108.45 11.0796L106.221 19.5874C106.241 19.8195 106.367 20.0013 106.6 20.133C106.86 20.2617 107.149 20.3354 107.465 20.3543L106.153 24.9021C105.472 25.0517 104.756 25.179 104.007 25.2838C103.25 25.4153 102.672 25.476 102.274 25.4659C101.456 25.5259 100.807 25.451 100.327 25.2413C99.8536 25.0048 99.5284 24.7658 99.3509 24.5243C98.8893 24.7549 98.2831 25.0268 97.5324 25.3398C96.7887 25.6261 95.9832 25.8929 95.116 26.1402C94.2488 26.3874 93.3889 26.5559 92.5362 26.6455ZM95.6342 21.5587C96.0468 21.5153 96.4561 21.4333 96.8622 21.3125C97.3028 21.1622 97.7194 21.0013 98.112 20.8299C98.5322 20.6557 98.8663 20.5035 99.1143 20.3734L99.9764 17.0826L96.891 17.6801C96.2168 17.803 95.6692 18.0557 95.248 18.4382C94.8613 18.791 94.5909 19.2617 94.4367 19.8503C94.2825 20.4389 94.2974 20.8926 94.4813 21.2115C94.6723 21.5037 95.0566 21.6194 95.6342 21.5587Z" fill="#300219"/>
<path d="M111.687 24.1643L112.643 4.43374L120.193 3.64018L119.059 17.7697L119.967 17.6743L126.382 2.98972L133.519 2.23953L123.899 22.8808L111.687 24.1643Z" fill="#300219"/>
<path d="M139.386 21.7214C136.965 21.9758 135.134 21.817 133.893 21.2449C132.659 20.6462 131.926 19.6175 131.693 18.159C131.487 16.6977 131.689 14.8032 132.299 12.4756C132.937 10.0409 133.823 7.98344 134.959 6.30303C136.122 4.61973 137.552 3.29872 139.247 2.33999C140.943 1.38126 142.932 0.781916 145.215 0.541969C148.488 0.197948 150.754 0.688323 152.011 2.01309C153.297 3.33497 153.515 5.61453 152.667 8.85177L151.454 12.2575L138.953 13.5714C138.7 14.6387 138.737 15.4153 139.065 15.9012C139.399 16.3604 140.144 16.5293 141.299 16.4079C142.179 16.3153 143.159 16.1993 144.239 16.0598C145.353 15.8907 146.454 15.723 147.541 15.5567C148.655 15.3876 149.59 15.2372 150.347 15.1057L149.303 19.7034C148.553 19.9123 147.606 20.1549 146.464 20.431C145.322 20.7072 144.132 20.9624 142.893 21.1966C141.655 21.4308 140.486 21.6058 139.386 21.7214ZM139.974 9.5225L145.75 8.9154C146.107 7.55095 146.136 6.62431 145.836 6.13548C145.543 5.6199 144.901 5.41415 143.911 5.51822C142.894 5.62518 142.074 5.99754 141.452 6.63527C140.837 7.24625 140.344 8.20866 139.974 9.5225Z" fill="#300219"/>
</svg>
